#!OML:ASF X:\für Bonn\!DataBase\2005_08_10_Bjorn_Final\c3d\bjorn.ASF
:FULLY-SPECIFIED
:DEGREES
170
root 1.76086 19.3465 3.74727 -190.95 2.52145 -205.25
lowerback 40.4934 -1.18619 -3.3436
upperback 19.341 6.7672 -6.48112
thorax 2.62411 7.40098 -7.09697
lowerneck -6.78637 11.9683 3.29511
upperneck -1.24017 16.187 -23.2522
head 3.08548 7.32408 -6.61645
rclavicle 2.70347e-014 1.06549e-013
rhumerus -13.4878 -10.8334 -69.1878
rradius 56.6966
rwrist -4.23092
rhand -17.5063 15.398
rfingers 7.12502
rthumb 8.74677 -14.4007
lclavicle 2.70347e-014 1.06549e-013
lhumerus -31.0669 -3.88792 71.0611
lradius 87.0075
lwrist -13.9168
lhand -53.1447 -18.5174
lfingers 7.12502
lthumb -25.6044 9.78136
rfemur -8.16815 6.37414 -6.82273
rtibia 31.101
rfoot -9.91116 13.5035
rtoes -11.7717
lfemur -81.1954 39.8342 18.0406
ltibia 140.179
lfoot -25.8136 -37.6346
ltoes -16.686
171
root 1.7715 19.3464 3.73771 -190.953 2.44244 -205.876
lowerback 40.6438 -1.16039 -3.83518
upperback 19.4074 6.73356 -6.62939
thorax 2.66304 7.40174 -6.99104
lowerneck -7.05044 11.9494 3.09359
upperneck -1.19001 16.1828 -23.2321
head 3.12581 7.29601 -6.56469
rclavicle 7.15625e-014 7.31528e-014
rhumerus -14.042 -11.1984 -68.7156
rradius 56.6504
rwrist -3.88104
rhand -18.4908 16.3149
rfingers 7.12502
rthumb 7.79665 -13.5213
lclavicle 7.15625e-014 7.31528e-014
lhumerus -30.772 -3.58623 70.4173
lradius 88.2496
lwrist -13.545
lhand -53.5159 -18.4241
lfingers 7.12502
lthumb -25.9598 9.82306
rfemur -8.13301 6.31169 -7.4116
rtibia 31.0835
rfoot -9.83408 13.0652
rtoes -10.0292
lfemur -80.6444 40.1513 20.5846
ltibia 139.561
lfoot -27.1659 -36.0824
ltoes -17.5475
172
root 1.78296 19.3433 3.72683 -190.894 2.37723 -206.446
lowerback 40.6819 -1.16095 -4.20497
upperback 19.4627 6.69105 -6.81288
thorax 2.72695 7.40202 -6.97624
lowerneck -7.26815 11.9355 2.97249
upperneck -1.15036 16.1811 -23.1976
head 3.16078 7.27591 -6.52308
rclavicle -3.18055e-015 -3.97569e-014
rhumerus -14.6326 -11.573 -68.3071
rradius 56.5767
rwrist -3.70499
rhand -19.3465 17.0681
rfingers 7.12502
rthumb 6.97068 -12.7971
lclavicle -3.18055e-015 -3.97569e-014
lhumerus -30.4383 -3.32694 69.7047
lradius 89.4052
lwrist -13.0805
lhand -53.6943 -18.4419
lfingers 7.12502
lthumb -26.1306 9.78011
rfemur -8.18792 6.27871 -7.94915
rtibia 31.1321
rfoot -9.84379 12.6665
rtoes -8.34435
lfemur -79.8343 40.1998 23.0368
ltibia 138.75
lfoot -28.0556 -34.7912
ltoes -17.9246
173
root 1.79527 19.3397 3.71465 -190.785 2.31411 -206.914
lowerback 40.6141 -1.18775 -4.446
upperback 19.5154 6.63906 -6.97317
thorax 2.81609 7.3943 -6.99292
lowerneck -7.45092 11.9214 2.87943
upperneck -1.07201 16.1861 -23.1538
head 3.20343 7.26018 -6.4834
rclavicle -6.20208e-014 -4.77083e-014
rhumerus -15.2178 -11.8705 -67.907
rradius 56.4225
rwrist -3.72028
rhand -20.0285 17.5797
rfingers 7.12502
rthumb 6.31225 -12.3063
lclavicle -6.20208e-014 -4.77083e-014
lhumerus -30.0805 -3.0391 69.0209
lradius 90.457
lwrist -12.6024
lhand -53.767 -18.586
lfingers 7.12502
lthumb -26.2003 9.62565
rfemur -8.28318 6.27354 -8.3812
rtibia 31.2114
rfoot -9.94826 12.2863
rtoes -7.05894
lfemur -78.9298 39.915 25.2902
ltibia 137.795
lfoot -28.5217 -33.8026
ltoes -18.6393
174
root 1.81053 19.3373 3.70084 -190.647 2.25289 -207.262
lowerback 40.4694 -1.20899 -4.61564
upperback 19.5402 6.56989 -7.05127
thorax 2.88465 7.35497 -6.95156
lowerneck -7.44881 11.9249 2.80216
upperneck -1.04025 16.2019 -23.1734
head 3.20991 7.26379 -6.47583
rclavicle -2.8625e-014 3.81667e-014
rhumerus -15.8621 -11.9855 -67.4534
rradius 56.235
rwrist -3.94619
rhand -20.5449 17.7547
rfingers 7.12502
rthumb 5.81378 -12.1456
lclavicle -2.8625e-014 3.81667e-014
lhumerus -29.8099 -2.69845 68.4031
lradius 91.4325
lwrist -12.1104
lhand -53.7869 -18.6717
lfingers 7.12502
lthumb -26.2193 9.53714
rfemur -8.38533 6.32077 -8.68919
rtibia 31.2948
rfoot -10.085 11.9511
rtoes -5.93182
lfemur -78.0351 39.3131 27.2355
ltibia 136.743
lfoot -28.041 -33.1987
ltoes -18.1665
175
root 1.82566 19.3342 3.68541 -190.532 2.15955 -207.573
lowerback 40.2893 -1.24056 -4.72158
upperback 19.5564 6.49337 -7.09569
thorax 2.94983 7.30723 -6.90365
lowerneck -7.30172 11.9165 2.77175
upperneck -0.993717 16.1985 -23.2059
head 3.19864 7.26818 -6.48926
rclavicle -9.54166e-014 -2.22639e-014
rhumerus -16.5892 -12.0701 -66.9578
rradius 55.9835
rwrist -4.23975
rhand -20.8914 17.7633
rfingers 7.12502
rthumb 5.47925 -12.1459
lclavicle -9.54166e-014 -2.22639e-014
lhumerus -29.5495 -2.35323 67.8406
lradius 92.2858
lwrist -11.6095
lhand -53.781 -18.9543
lfingers 7.12502
lthumb -26.2137 9.25539
rfemur -8.42893 6.36312 -8.97515
rtibia 31.3647
rfoot -10.2678 11.701
rtoes -5.52573
lfemur -77.131 38.4492 28.7637
ltibia 135.582
lfoot -26.6126 -32.9517
ltoes -16.1955
176
root 1.8421 19.3316 3.66865 -190.457 1.99877 -207.83
lowerback 40.078 -1.30928 -4.76403
upperback 19.6114 6.41371 -7.09955
thorax 3.06492 7.26567 -6.83708
lowerneck -7.16363 11.9054 2.74622
upperneck -0.928205 16.1953 -23.2251
head 3.19353 7.2713 -6.49846
rclavicle 2.70347e-014 6.36111e-014
rhumerus -17.2782 -12.2693 -66.432
rradius 55.6028
rwrist -4.44857
rhand -21.0581 17.6659
rfingers 7.12502
rthumb 5.31828 -12.2474
lclavicle 2.70347e-014 6.36111e-014
lhumerus -29.2082 -1.96529 67.3548
lradius 93.0415
lwrist -11.2068
lhand -53.8308 -19.2035
lfingers 7.12502
lthumb -26.2613 8.99909
rfemur -8.37881 6.41962 -9.2032
rtibia 31.4206
rfoot -10.4861 11.4573
rtoes -5.68291
lfemur -76.1548 37.2924 29.9135
ltibia 134.29
lfoot -24.3608 -33.4945
ltoes -12.1391
177
root 1.85964 19.3284 3.65075 -190.397 1.79142 -208.023
lowerback 39.8401 -1.39969 -4.73067
upperback 19.6757 6.32992 -7.06171
thorax 3.19446 7.22242 -6.76137
lowerneck -7.02319 11.8864 2.74525
upperneck -0.820632 16.1884 -23.2697
head 3.20464 7.26848 -6.51886
rclavicle 0 3.18055e-015
rhumerus -17.9977 -12.5868 -65.8822
rradius 55.1136
rwrist -4.52419
rhand -21.0974 17.5082
rfingers 7.12502
rthumb 5.28033 -12.406
lclavicle 0 3.18055e-015
lhumerus -28.8429 -1.56303 66.9379
lradius 93.7366
lwrist -10.9036
lhand -54.0117 -19.5713
lfingers 7.12502
lthumb -26.4345 8.60538
rfemur -8.27517 6.43531 -9.36281
rtibia 31.4812
rfoot -10.7625 11.2424
rtoes -6.55552
lfemur -75.0507 35.8971 30.6535
ltibia 132.817
lfoot -21.3764 -33.6472
ltoes -5.93181
